<svg preserveAspectRatio="none" overflow="visible" style="display: block;" width="20" height="22" viewBox="0 0 20 22" fill="none" xmlns="http://www.w3.org/2000/svg">
<path id="Vector" d="M15.8183 9.15255C12.9673 3.05457 11.4842 0.738161 6.82628 0.835093C5.16692 0.868646 5.56457 -0.360394 4.29911 0.105622C3.03614 0.571638 4.12029 1.25389 2.82732 2.30895C-0.801509 5.27032 -0.467637 8.00926 1.21548 14.5372C1.92449 17.2873 -0.493897 17.4215 0.462703 20.0859C1.16171 22.0295 6.31359 22.8435 11.7481 20.8402C17.1838 18.8357 20.6088 14.8578 19.9098 12.9142C18.9532 10.2486 17.02 11.72 15.8183 9.15255ZM11.1591 19.1974C6.30484 20.9869 2.31588 19.9355 2.14707 19.467C1.85696 18.6593 3.71389 15.9676 9.26342 13.9208C14.8129 11.8741 17.9103 12.6334 18.2342 13.5343C18.4255 14.0675 16.0146 17.4066 11.1591 19.1974ZM9.59854 14.8553C7.06136 15.7911 5.29822 16.8611 4.1553 17.8242C4.95935 18.5499 6.4649 18.7264 7.9642 18.1734C9.87364 17.4712 11.0478 15.8545 10.5839 14.5645L10.5639 14.5198C10.2504 14.6209 9.92866 14.7327 9.59854 14.8553Z" fill="#6E6E6E"/>
</svg>
